<svg width="587" height="310" viewBox="0 0 587 310" fill="none" xmlns="http://www.w3.org/2000/svg">
<path d="M262.844 109.291C260.651 116.073 258.956 123.02 257.74 130.077C257.205 133.21 256.763 136.361 256.45 139.53C255.362 162.748 257.647 173.676 257.647 173.676C260.946 197.852 270.325 221.586 284.735 242.317C311.989 281.548 357.246 309.982 413.302 310C450.506 310 476.82 294.134 481.574 291.61L491.433 304.619H586.72L544.411 245.726C544.411 245.726 573.083 208.3 573.194 159.542C573.434 63.7578 506.34 1.56611 412.749 1.4187C358.536 1.32656 312.542 27.788 284.588 66.485C275.172 79.5314 267.782 93.9784 262.844 109.291ZM486.421 175.906L478.294 164.923H381.625L420.93 221.697C380.022 229.713 341.362 195.457 341.933 155.654C342.504 114.985 375.323 84.5252 414.592 84.7832C457.656 85.078 500.646 131.533 486.421 175.906Z" fill="white"/>
<path d="M284.608 66.3747C283.631 64.9927 282.636 63.6291 281.604 62.2471C258.423 31.4 218.141 0.073838 155.581 0.00012929C82.0562 -0.0920065 25.3189 49.0717 6.59693 109.236C6.3758 109.955 6.15466 110.692 5.95197 111.411C5.93354 111.448 5.93353 111.484 5.9151 111.521C2.06383 124.973 0 139.18 0 153.867C0.147417 167.908 1.9717 181.36 5.28859 194.075C17.1004 237.987 47.8185 274.215 88.2846 293.655C88.6162 293.803 88.9295 293.969 89.2612 294.116C89.4639 294.208 89.6666 294.3 89.8877 294.411C110.305 303.698 133.228 308.876 157.589 309.06C209.222 308.637 254.885 283.355 283.041 244.676C283.631 243.865 284.184 243.036 284.755 242.225C290.117 234.559 294.779 226.396 298.686 217.828C307.568 198.35 312.543 176.753 312.543 153.978C312.543 145.814 311.898 137.817 310.682 130.004H167.853V202.699H207.232C207.232 204.468 187.036 224.093 156.741 224.093C123.407 224.093 85.6863 197.779 84.9308 155.617C84.1384 111.945 121.933 83.3277 156.741 84.5624C185.009 85.5758 195.807 93.647 211.581 109.181C211.581 109.181 234.375 109.199 257.575 109.218C259.344 109.218 261.113 109.218 262.882 109.218C283.631 109.236 303.33 109.236 305.743 109.236C305.043 106.564 304.085 103.524 302.85 100.244C299.202 90.5881 293.231 78.6288 284.608 66.3747Z" fill="white"/>
</svg>
