<?xml version="1.0" encoding="iso-8859-1"?>
<!-- Generator: Adobe Illustrator 25.2.3, SVG Export Plug-In . SVG Version: 6.00 Build 0)  -->
<svg version="1.1" id="Layer_1" xmlns="http://www.w3.org/2000/svg" xmlns:xlink="http://www.w3.org/1999/xlink" x="0px" y="0px"
	 viewBox="0 0 443.172 234.073" style="enable-background:new 0 0 443.172 234.073;" xml:space="preserve">
<g>
	<g>
		<defs>
			<path id="SVGID_1_" d="M411.215,185.526c0,0,21.65-28.263,21.749-65.097c0.172-72.34-50.508-119.332-121.188-119.437
				c-40.951-0.068-75.697,19.916-96.801,49.14c-0.732-1.038-1.486-2.074-2.267-3.125C195.195,23.717,164.78,0.06,117.521,0
				C61.983-0.067,19.128,37.052,4.997,82.505c-0.169,0.549-0.342,1.096-0.504,1.645c-0.007,0.031-0.015,0.06-0.023,0.09
				C1.563,94.405,0.007,105.141,0,116.221c0.102,10.617,1.487,20.773,3.993,30.367c8.918,33.169,32.128,60.538,62.681,75.216
				c0.249,0.113,0.494,0.234,0.741,0.354c0.154,0.076,0.315,0.143,0.469,0.211c15.424,7.016,32.742,10.93,51.143,11.065
				c39.003-0.315,73.493-19.412,94.747-48.622c0.444-0.612,0.866-1.234,1.294-1.847h0.012
				c20.584,29.635,54.763,51.102,97.102,51.108c28.105,0,47.977-11.989,51.575-13.898l7.436,9.834h71.979L411.215,185.526z
				 M118.382,169.254c-25.171,0-53.667-19.88-54.241-51.726c-0.594-32.981,27.946-54.602,54.241-53.663
				c21.348,0.76,29.502,6.86,41.418,18.586c0,0,10.506,0.01,23.452,0.021v0.032h15.275c-1.648,5.108-2.932,10.353-3.839,15.678
				h-0.003h-3.805h-10.828h-53.287v54.903h29.744C156.509,154.431,141.262,169.254,118.382,169.254z M367.4,132.801l-6.137-8.301
				h-73.017l29.683,42.889c-30.898,6.055-60.094-19.817-59.664-49.876c0.428-30.726,25.22-53.73,54.872-53.528
				C345.689,64.188,378.152,99.294,367.4,132.801z"/>
		</defs>
		<clipPath id="SVGID_2_">
			<use xlink:href="#SVGID_1_"  style="overflow:visible;"/>
		</clipPath>
		
			<linearGradient id="SVGID_3_" gradientUnits="userSpaceOnUse" x1="-355.6513" y1="-107.1148" x2="-355.2404" y2="-107.1148" gradientTransform="matrix(1081.4491 0 0 1081.4491 384617.8438 115977.5859)">
			<stop  offset="0" style="stop-color:#DC0605"/>
			<stop  offset="0.1029" style="stop-color:#F28D06"/>
			<stop  offset="0.2211" style="stop-color:#D5EB10"/>
			<stop  offset="0.3379" style="stop-color:#3CA32A"/>
			<stop  offset="0.4273" style="stop-color:#100A71"/>
			<stop  offset="0.5402" style="stop-color:#5A016F"/>
			<stop  offset="0.6545" style="stop-color:#F99FC3"/>
			<stop  offset="0.7753" style="stop-color:#87D0D5"/>
			<stop  offset="0.8921" style="stop-color:#4F2107"/>
			<stop  offset="1" style="stop-color:#151011"/>
		</linearGradient>
		<rect x="0.001" y="-12.831" style="clip-path:url(#SVGID_2_);fill:url(#SVGID_3_);" width="443.173" height="302.5"/>
	</g>
</g>
</svg>
