<!-- Generator: Adobe Illustrator 22.1.0, SVG Export Plug-In . SVG Version: 6.00 Build 0)  -->
<svg version="1.1" id="Layer_1" xmlns="http://www.w3.org/2000/svg" xmlns:xlink="http://www.w3.org/1999/xlink" x="0px" y="0px"
	 viewBox="0 0 160 100" style="enable-background:new 0 0 160 100;" xml:space="preserve">

<style type="text/css">
	.LHlogo-bgr{fill:#0D0D0D;}
	.LHlogo-inner{fill:#FFFFFF;}
</style>

<rect class="LHlogo-bgr" width="160" height="100"/>
<path class="LHlogo-inner" d="M87.7,19h-1.5v-4.4h1.5c0.4,0,0.8-0.4,0.8-0.8c0-0.4-0.4-0.8-0.8-0.8h-1.5v-0.5c0,0,0-0.1,0-0.1v-0.4
	c0-2.4-1.7-4.5-4.1-4.9V5.9c0-0.4-0.4-0.8-0.8-0.8c-0.4,0-0.8,0.4-0.8,0.8V7c-2.4,0.4-4.1,2.4-4.1,4.8v1.1h-1.5
	c-0.4,0-0.8,0.4-0.8,0.8c0,0.4,0.4,0.8,0.8,0.8h1.5v4.4h-1.5c-0.4,0-0.8,0.4-0.8,0.8c0,0.4,0.4,0.8,0.8,0.8h1.5v0.8l0,0v16.2l0,0
	v7.3c0,1.2,0.4,2.3,1.2,3.2l2.7,3.1l-2.9,3.3c-0.7,0.8-0.8,2-0.3,2.9l3.4,6.6c0.2,0.3,0.5,0.6,0.9,0.6l0,0c0.4,0,0.7-0.2,0.9-0.5
	l3.4-6.6c0.5-0.9,0.3-2.1-0.3-2.9l-2.9-3.3L85,48c0.8-0.9,1.2-2,1.2-3.2V21.4l0,0v-0.8h1.5c0.4,0,0.8-0.4,0.8-0.8
	C88.5,19.3,88.2,19,87.7,19L87.7,19z M84.6,37L78,44.6v-6.5l6.6-7.6V37z M78,20.6h5.6L78,27.1V20.6z M78,12.4v-0.5
	c0-1.7,1.4-3.2,3.1-3.3h0.4c1.7,0.1,3.1,1.5,3.1,3.3v1.1H78V12.4z M84.6,14.6V19h-0.9c-1.2,0-3,0-5.7,0v-4.4H84.6z M78,29.6l6.6-7.7
	V28L78,35.7V29.6z M84,55.5c0.3,0.3,0.3,0.7,0.1,1.1l-2,4v-2c0-0.4-0.4-0.8-0.8-0.8c-0.4,0-0.8,0.4-0.8,0.8v2l-2-4
	c-0.2-0.4-0.1-0.8,0.1-1.1l2.7-3.2L84,55.5z M83.8,47l-2.5,2.9L78.8,47c-0.1-0.1-0.2-0.3-0.3-0.5l6.1-7.1v5.4
	C84.6,45.6,84.3,46.4,83.8,47z M7.8,80.3H3.2v-7.8c0-0.5-0.4-0.9-0.9-0.9c0,0,0,0,0,0c-0.5,0-1,0.4-1,0.9v8.5c0,0.6,0.4,1,1,1h5.6
	c0.5,0.1,0.9-0.3,1-0.8c0.1-0.5-0.3-0.9-0.8-1C8,80.3,7.9,80.3,7.8,80.3L7.8,80.3z M18.1,71.6c-0.5,0-1,0.4-1,0.9v8.6
	c0.2,0.5,0.7,0.8,1.3,0.7c0.3-0.1,0.6-0.3,0.7-0.7v-8.6C19,72,18.6,71.6,18.1,71.6z M36.6,76.2h-2.9c-0.5,0-0.8,0.4-0.8,0.8
	c0,0.5,0.4,0.8,0.8,0.8h2v1.8c-0.7,0.5-1.6,0.8-2.4,0.8c-1.9,0-3.4-1.4-3.4-3.3c0-0.1,0-0.2,0-0.3l0,0c-0.1-1.9,1.4-3.5,3.3-3.6
	c0.9,0,1.8,0.3,2.5,0.8c0.2,0.1,0.4,0.2,0.6,0.2c0.5,0,0.9-0.4,1-0.9c0-0.3-0.1-0.6-0.4-0.8c-1-0.7-2.3-1.1-3.5-1.1
	c-2.9,0-5.3,2.3-5.4,5.2c0,0,0,0.1,0,0.1l0,0c-0.1,2.8,2.1,5.2,4.9,5.3c0.2,0,0.3,0,0.5,0c1.3,0,2.6-0.4,3.7-1.1
	c0.4-0.2,0.7-0.7,0.7-1.2v-2.7C37.5,76.6,37.1,76.2,36.6,76.2z M54.1,71.6c-0.5,0-0.9,0.4-1,0.9c0,0,0,0,0,0v3.4h-4.8v-3.4
	c-0.2-0.5-0.7-0.8-1.3-0.7c-0.3,0.1-0.6,0.3-0.7,0.7v8.6c0.2,0.5,0.7,0.8,1.3,0.7c0.3-0.1,0.6-0.3,0.7-0.7v-3.5h4.8v3.4
	c0.2,0.5,0.7,0.8,1.3,0.7c0.3-0.1,0.6-0.3,0.7-0.7v-8.6C55,72,54.6,71.6,54.1,71.6z M71.1,71.7h-6.8c-0.5,0-0.9,0.4-0.9,0.9
	c0,0.5,0.4,0.9,0.9,0.9h2.4v7.7c0.1,0.5,0.7,0.8,1.2,0.7c0.3-0.1,0.6-0.4,0.7-0.7v-7.7h2.5c0.5,0,0.9-0.4,0.9-0.9
	C72,72.1,71.6,71.7,71.1,71.7L71.1,71.7z M88,71.6c-0.5,0-0.9,0.4-0.9,0.9c0,0,0,0,0,0v3.4h-4.8v-3.4c-0.2-0.5-0.7-0.8-1.3-0.7
	c-0.3,0.1-0.6,0.3-0.7,0.7v8.6c0.2,0.5,0.7,0.8,1.3,0.7c0.3-0.1,0.6-0.3,0.7-0.7v-3.5H87v3.4c0.2,0.5,0.7,0.8,1.3,0.7
	c0.3-0.1,0.6-0.3,0.7-0.7v-8.6C88.9,72,88.5,71.6,88,71.6z M103,71.5c-3,0-5.4,2.3-5.4,5.3c0,0,0,0.1,0,0.1l0,0
	c-0.1,2.9,2.3,5.3,5.2,5.4c0.1,0,0.2,0,0.3,0c3,0,5.4-2.3,5.4-5.3c0,0,0-0.1,0-0.1l0,0c0.1-2.9-2.3-5.3-5.2-5.4
	C103.2,71.5,103.1,71.5,103,71.5z M106.4,76.9c0.1,1.9-1.4,3.5-3.3,3.5c0,0-0.1,0-0.1,0c-0.9,0-1.8-0.4-2.5-1.1
	c-0.6-0.7-1-1.6-1-2.5l0,0c-0.1-1.9,1.3-3.5,3.2-3.6c0.1,0,0.2,0,0.2,0c0.9,0,1.8,0.4,2.5,1.1C106.1,75,106.5,75.9,106.4,76.9
	L106.4,76.9z M124.9,71.6c-0.5,0-1,0.4-1,0.9v5.1c0,1.8-0.9,2.8-2.5,2.8s-2.5-1-2.5-2.9v-5c-0.2-0.5-0.7-0.8-1.3-0.7
	c-0.3,0.1-0.6,0.3-0.7,0.7v5.1c0,2.9,1.6,4.6,4.4,4.6s4.5-1.7,4.5-4.7v-5C125.9,72,125.5,71.6,124.9,71.6
	C124.9,71.6,124.9,71.6,124.9,71.6z M138.9,76c-2.1-0.5-2.4-0.9-2.4-1.6l0,0c0-0.7,0.6-1.2,1.6-1.2c0.8,0,1.7,0.3,2.3,0.8
	c0.2,0.1,0.3,0.1,0.5,0.1c0.5,0,0.9-0.4,0.9-0.9c0-0.3-0.2-0.6-0.4-0.8c-1-0.7-2.1-1-3.3-1c-2.1,0-3.6,1.2-3.6,3l0,0
	c0,1.9,1.2,2.6,3.5,3.1c1.9,0.4,2.3,0.8,2.3,1.5l0,0c0,0.8-0.7,1.2-1.8,1.2c-1,0-2-0.3-2.8-1c-0.2-0.1-0.4-0.2-0.6-0.2
	c-0.5,0-0.9,0.4-0.9,0.9c0,0,0,0,0,0c0,0.3,0.1,0.6,0.4,0.7c1.1,0.8,2.5,1.3,3.9,1.3c2.3,0,3.7-1.2,3.7-3.1l0,0
	C142.2,77.2,140.9,76.5,138.9,76z M157.9,80.3h-5.1v-2.7h4.4c0.5,0,0.9-0.4,0.9-0.8c0,0,0,0,0,0c0-0.5-0.4-0.9-0.9-0.9c0,0,0,0,0,0
	h-4.4v-2.6h5c0.5,0,0.9-0.4,0.9-0.9l0,0c0-0.5-0.4-0.9-0.9-0.9h-6c-0.6,0-1,0.4-1,1v8.4c0,0.6,0.4,1,1,1h6c0.5,0,0.9-0.4,0.9-0.9
	l0,0C158.7,80.8,158.4,80.4,157.9,80.3z M44.6,90c0-0.3,0.2-0.5,0.4-0.5c0,0,0,0,0,0h1.6c1-0.1,1.9,0.6,2,1.5c0,0.1,0,0.1,0,0.2l0,0
	c0,1.2-1,1.8-2.1,1.8h-1v1.3c0,0.3-0.2,0.5-0.5,0.5s-0.5-0.2-0.5-0.5l0,0V90z M46.6,92.3c0.7,0,1.1-0.4,1.1-0.9l0,0
	c0-0.6-0.5-0.9-1.1-0.9h-1.1v1.9L46.6,92.3z M52.6,92.6V90c0-0.3,0.2-0.5,0.5-0.5s0.5,0.2,0.5,0.5v2.6c0,1,0.5,1.5,1.3,1.5
	s1.3-0.5,1.3-1.5V90c0-0.3,0.2-0.5,0.5-0.5s0.5,0.2,0.5,0.5v2.6c0.2,1.2-0.6,2.2-1.8,2.4c-0.2,0-0.3,0-0.5,0
	c-1.1,0.1-2.2-0.8-2.3-1.9C52.5,92.9,52.5,92.8,52.6,92.6z M61.4,90c0-0.3,0.2-0.5,0.4-0.5c0,0,0,0,0,0h1.9c0.5,0,1,0.1,1.4,0.5
	c0.2,0.2,0.4,0.5,0.4,0.9l0,0c0,0.5-0.3,1-0.8,1.2c0.6,0.1,1.1,0.7,1.1,1.3l0,0c0,0.9-0.8,1.4-2,1.4h-2c-0.3,0-0.5-0.2-0.5-0.4
	c0,0,0,0,0,0L61.4,90z M63.6,91.8c0.6,0,1-0.2,1-0.7l0,0c0-0.4-0.3-0.7-0.9-0.7h-1.4v1.4L63.6,91.8z M63.8,94c0.6,0,1-0.2,1-0.7l0,0
	c0-0.4-0.4-0.7-1.1-0.7h-1.5V94H63.8z M69.9,90c0-0.3,0.2-0.5,0.5-0.5c0.3,0,0.5,0.2,0.5,0.5v4h2.4c0.2,0,0.4,0.2,0.4,0.4
	c0,0.2-0.2,0.4-0.4,0.4h-2.9c-0.3,0-0.5-0.2-0.5-0.4c0,0,0,0,0,0L69.9,90z M77.6,90c0-0.3,0.2-0.5,0.5-0.5c0.3,0,0.5,0.2,0.5,0.5
	v4.4c0,0.3-0.2,0.5-0.5,0.5c-0.3,0-0.5-0.2-0.5-0.5V90z M82.8,94.3c-0.1-0.1-0.2-0.2-0.2-0.4c0-0.2,0.2-0.4,0.5-0.4
	c0.1,0,0.2,0,0.2,0.1c0.4,0.3,0.9,0.5,1.5,0.5c0.6,0,0.9-0.3,0.9-0.7l0,0c0-0.4-0.2-0.6-1.2-0.8S82.8,92,82.8,91l0,0
	c0-0.9,0.8-1.6,1.7-1.5c0,0,0.1,0,0.1,0c0.6,0,1.2,0.2,1.7,0.5c0.1,0.1,0.2,0.2,0.2,0.4c0,0.2-0.2,0.4-0.4,0.4c0,0,0,0,0,0
	c-0.1,0-0.2,0-0.2-0.1c-0.4-0.3-0.8-0.4-1.2-0.4c-0.5,0-0.9,0.3-0.9,0.6l0,0c0,0.4,0.2,0.6,1.3,0.8s1.7,0.7,1.7,1.6l0,0
	c0,1-0.8,1.6-1.9,1.6C84.1,94.9,83.4,94.7,82.8,94.3z M90.8,90c0-0.3,0.3-0.4,0.5-0.4c0.2,0,0.4,0.2,0.4,0.4v1.8h2.5V90
	c0-0.3,0.2-0.5,0.5-0.5c0.3,0,0.5,0.2,0.5,0.5v4.4c0,0.3-0.2,0.5-0.5,0.5c-0.3,0-0.5-0.2-0.5-0.5v-1.8h-2.5v1.8
	c0,0.3-0.3,0.4-0.5,0.4c-0.2,0-0.4-0.2-0.4-0.4V90z M99.7,90c0-0.3,0.2-0.5,0.5-0.5c0.3,0,0.5,0.2,0.5,0.5v4.4
	c0,0.3-0.2,0.5-0.5,0.5c-0.3,0-0.5-0.2-0.5-0.5V90z M105,90c0-0.3,0.2-0.5,0.5-0.5l0,0h0.1c0.2,0,0.4,0.1,0.5,0.3l2.7,3.4V90
	c0-0.3,0.3-0.4,0.5-0.4c0.2,0,0.4,0.2,0.4,0.4v4.4c0,0.2-0.2,0.5-0.4,0.5c0,0,0,0,0,0l0,0c-0.2,0-0.4-0.1-0.5-0.3l-2.7-3.5v3.4
	c0,0.3-0.2,0.5-0.5,0.5c-0.3,0-0.5-0.2-0.5-0.5L105,90z M113.8,92.2L113.8,92.2c0-1.5,1.2-2.7,2.7-2.7c0,0,0,0,0.1,0
	c0.6,0,1.3,0.2,1.8,0.5c0.1,0.1,0.2,0.2,0.2,0.4c0,0.3-0.2,0.5-0.5,0.5c-0.1,0-0.2,0-0.3-0.1c-0.4-0.3-0.8-0.4-1.3-0.4
	c-1,0-1.8,0.9-1.7,1.9c0,0,0,0,0,0l0,0c-0.1,1,0.7,1.8,1.6,1.9c0.1,0,0.1,0,0.2,0c0.5,0,0.9-0.1,1.3-0.4v-1h-1
	c-0.2,0-0.4-0.2-0.4-0.4c0,0,0,0,0,0c0-0.2,0.2-0.4,0.4-0.4c0,0,0,0,0,0h1.5c0.3,0,0.5,0.2,0.5,0.4c0,0,0,0,0,0v1.4
	c0,0.2-0.1,0.5-0.3,0.6c-0.6,0.4-1.2,0.6-1.9,0.6c-1.5,0.1-2.7-1-2.8-2.5C113.8,92.4,113.8,92.3,113.8,92.2z"/>
</svg>
