<svg xmlns="http://www.w3.org/2000/svg" viewBox="0 0 66.28 76.37"><defs><style>.cls-1{fill:#fff;}</style></defs><title>Asset 1</title><g id="Layer_2" data-name="Layer 2"><g id="homepage"><path class="cls-1" d="M.14,0H27.56c.16,0,.11.81,0,.81H21.9s-1.59-.07-1.11.81c.09.18,19.37,52.89,19.37,52.89s.33.91.6,1c0,0,17.13-52.93,17.15-53,.18-.52.79-1.7-.27-1.7h-6.2c-.11,0-.11-.81,0-.81H66.2c.11,0,.11.81,0,.81H60.71c-1.51,0-1.52.44-1.79,1.22-.13.39-23.85,74.31-23.85,74.31l-.2-.6c-10-29-25.59-69.38-26.82-73.68C7.68.8,7.5.84,6.74.84H.14C-.06.84,0,0,.14,0Z"/></g></g></svg>